# xmcd
#
# Track frame offsets:
#	150
#	10775
#	21425
#	30425
#	43250
#	55925
#	71150
#	83375
#	97250
#	109850
#	120800
#	130625
#	142550
#	156800
#	170825
#	182525
#	193625
#	206000
#	214550
#	224825
#
# Disc length: 3139 seconds
#
# Revision: 0
# Processed by: cddbd v1.4PL0 Copyright (c) Steve Scherf et al.
# Submitted via: audiograbber 1.80
#
DISCID=150c4114
DTITLE=Enrico Caruso - Complete Recordings Vol.1
DYEAR=1900
DGENRE=
TTITLE0=Tu non mi vuoi piu ben
TTITLE1=E lucevan le stelle
TTITLE2=Qui sotto it ciel
TTITLE3=Un bacio ancora
TTITLE4=Luna fedel
TTITLE5=Una furtiva lagrima
TTITLE6=E lucevana
TTITLE7=No, non chiuder gli occhi vaghi
TTITLE8=La donna e mobile
TTITLE9=Siciliana
TTITLE10=Questa o quella
TTITLE11=Chiudo gli occhi
TTITLE12=Una furtiva lagrima
TTITLE13=Giunto sul passo estremo
TTITLE14=E lucevan le stelle
TTITLE15=Serenata
TTITLE16=No, non chiuder gli occhi vaghi
TTITLE17=Studenti! Udite
TTITLE18=Dai campi, dai prati
TTITLE19=Celeste Aida
EXTD=
EXTT0=
EXTT1=
EXTT2=
EXTT3=
EXTT4=
EXTT5=
EXTT6=
EXTT7=
EXTT8=
EXTT9=
EXTT10=
EXTT11=
EXTT12=
EXTT13=
EXTT14=
EXTT15=
EXTT16=
EXTT17=
EXTT18=
EXTT19=
PLAYORDER=
